<svg width="14" height="15" viewBox="0 0 14 15" fill="none" xmlns="http://www.w3.org/2000/svg">
<g clip-path="url(#clip0_10_965)">
<path d="M5.76955 0.449628C5.60549 0.277362 5.35939 0.211737 5.12971 0.271894C4.90002 0.33205 4.72228 0.515253 4.66213 0.74494L4.2301 2.45392L2.53478 1.97541C2.3051 1.90978 2.059 1.97541 1.89221 2.14221C1.72541 2.309 1.65978 2.5551 1.72541 2.78478L2.20392 4.4801L0.49494 4.91486C0.265253 4.97228 0.0847842 5.15275 0.0218935 5.38244C-0.0409971 5.61213 0.0273623 5.85549 0.199628 6.01955L1.46291 7.25002L0.199628 8.48049C0.0273623 8.64455 -0.0382627 8.89064 0.0218935 9.12033C0.0820498 9.35002 0.265253 9.52775 0.49494 9.58791L2.20392 10.0199L1.72541 11.7153C1.65978 11.9449 1.72541 12.191 1.89221 12.3578C2.059 12.5246 2.3051 12.5903 2.53478 12.5246L4.2301 12.0461L4.66213 13.7551C4.71955 13.9848 4.90002 14.1653 5.12971 14.2281C5.35939 14.291 5.60275 14.2227 5.76955 14.0531L7.00002 12.7899L8.23049 14.0531C8.39728 14.2227 8.64064 14.291 8.87033 14.2281C9.10002 14.1653 9.27775 13.9848 9.33791 13.7551L9.76994 12.0461L11.4653 12.5246C11.6949 12.5903 11.941 12.5246 12.1078 12.3578C12.2746 12.191 12.3403 11.9449 12.2746 11.7153L11.7961 10.0199L13.5051 9.58791C13.7348 9.53049 13.9153 9.35002 13.9781 9.12033C14.041 8.89064 13.9727 8.64728 13.8031 8.48049L12.5399 7.25002L13.8031 6.01955C13.9727 5.85275 14.041 5.60939 13.9781 5.37971C13.9153 5.15002 13.7348 4.97228 13.5051 4.91213L11.7961 4.4801L12.2746 2.78478C12.3403 2.5551 12.2746 2.309 12.1078 2.14221C11.941 1.97541 11.6949 1.90978 11.4653 1.97541L9.76994 2.45392L9.33517 0.74494C9.27775 0.515253 9.09728 0.334784 8.8676 0.271894C8.63791 0.209003 8.39455 0.277362 8.23049 0.449628L7.00002 1.71291L5.76955 0.449628Z" fill="#1F6B4A"/>
</g>
<defs>
<clipPath id="clip0_10_965">
<path d="M0 0.25H14V14.25H0V0.25Z" fill="white"/>
</clipPath>
</defs>
</svg>
