<svg width="25" height="33" viewBox="0 0 25 33" fill="none" xmlns="http://www.w3.org/2000/svg">
<path d="M24.6562 32.5H0.65625V0.5H24.6562V32.5Z" stroke="#E5E7EB"/>
<g clip-path="url(#clip0_10_780)">
<path d="M11.2734 7.85472C11.9437 9.86566 11.2593 11.8953 9.74523 12.3922C8.23117 12.8891 6.45929 11.661 5.78898 9.65003C5.11867 7.6391 5.80304 5.60941 7.3171 5.11253C8.83117 4.61566 10.603 5.84378 11.2734 7.85472ZM5.36242 12.8094C6.24835 14.3282 6.03273 16.0953 4.88429 16.7516C3.73585 17.4078 2.08585 16.7094 1.2046 15.1907C0.323353 13.6719 0.529603 11.9047 1.67804 11.2485C2.82648 10.5922 4.47648 11.2907 5.35773 12.8094H5.36242ZM3.89992 22.3063C6.35617 15.6828 10.7202 14 12.6562 14C14.5921 14 18.9562 15.6828 21.4124 22.3063C21.5812 22.761 21.6562 23.2485 21.6562 23.736V23.811C21.6562 25.0203 20.6765 26 19.4671 26C18.928 26 18.3937 25.9344 17.8734 25.8032L13.7484 24.7719C13.0312 24.5938 12.2812 24.5938 11.564 24.7719L7.43898 25.8032C6.91867 25.9344 6.38429 26 5.84523 26C4.63585 26 3.65617 25.0203 3.65617 23.811V23.736C3.65617 23.2485 3.73117 22.761 3.89992 22.3063ZM20.428 16.7516C19.2796 16.0953 19.064 14.3282 19.9499 12.8094C20.8359 11.2907 22.4812 10.5922 23.6296 11.2485C24.778 11.9047 24.9937 13.6719 24.1077 15.1907C23.2218 16.7094 21.5765 17.4078 20.428 16.7516ZM15.1921 12.3922C13.678 11.8953 12.9937 9.86566 13.664 7.85472C14.3343 5.84378 16.1062 4.61566 17.6202 5.11253C19.1343 5.60941 19.8187 7.6391 19.1484 9.65003C18.478 11.661 16.7062 12.8891 15.1921 12.3922Z" fill="#1F6B4A"/>
</g>
<defs>
<clipPath id="clip0_10_780">
<path d="M0.65625 3.5H24.6562V27.5H0.65625V3.5Z" fill="white"/>
</clipPath>
</defs>
</svg>
