<svg width="15" height="15" viewBox="0 0 15 15" fill="none" xmlns="http://www.w3.org/2000/svg">
<g clip-path="url(#clip0_10_961)">
<path d="M4.8395 1.4832C5.31801 0.714844 6.1602 0.25 7.06254 0.25C7.96489 0.25 8.80707 0.714844 9.28559 1.4832L10.3411 3.17031L11.0793 2.74375C11.309 2.60977 11.5961 2.62891 11.8067 2.79023C12.0172 2.95156 12.1102 3.225 12.0418 3.48203L11.402 5.87187C11.309 6.22187 10.9481 6.42969 10.5981 6.33672L8.20825 5.69687C7.95121 5.62852 7.76254 5.4125 7.727 5.15C7.69145 4.8875 7.81996 4.62773 8.04965 4.49648L8.82621 4.04805L7.80082 2.41016C7.64223 2.15586 7.36332 2 7.06254 2C6.76176 2 6.48285 2.15586 6.32426 2.41016L5.84575 3.17578C5.59418 3.58047 5.06371 3.70898 4.65356 3.46289C4.2352 3.21133 4.10121 2.66445 4.36098 2.24883L4.8395 1.4832ZM11.8067 7.13789C12.2168 6.8918 12.7473 7.02031 12.9989 7.425L13.6661 8.49414C13.9231 8.90703 14.0598 9.38008 14.0653 9.8668C14.0735 11.3187 12.8977 12.5027 11.4457 12.5027L8.81254 12.5V13.375C8.81254 13.6402 8.65395 13.8809 8.40786 13.982C8.16176 14.0832 7.88012 14.0285 7.69145 13.8398L5.94145 12.0898C5.68442 11.8328 5.68442 11.4172 5.94145 11.1629L7.69145 9.41289C7.88012 9.22422 8.16176 9.16953 8.40786 9.2707C8.65395 9.37187 8.81254 9.6125 8.81254 9.87773V10.7527H11.443C11.9243 10.7527 12.3153 10.359 12.3125 9.87773C12.3125 9.71641 12.2661 9.55781 12.1813 9.42109L11.5141 8.35195C11.2543 7.93633 11.3856 7.38945 11.8067 7.13789ZM1.83715 6.29023L1.04692 5.83359C0.81723 5.69961 0.688715 5.44258 0.724261 5.18008C0.759808 4.91758 0.94848 4.70156 1.20551 4.6332L3.59536 3.99336C3.94535 3.90039 4.30629 4.1082 4.39926 4.4582L5.0391 6.84531C5.10746 7.10234 5.0145 7.37305 4.80395 7.53711C4.5934 7.70117 4.30629 7.71758 4.07661 7.58359L3.352 7.16523L1.94379 9.41836C1.85903 9.55508 1.81254 9.71367 1.81254 9.875C1.80981 10.3562 2.20082 10.75 2.68207 10.75H3.56254C4.04653 10.75 4.43754 11.141 4.43754 11.625C4.43754 12.109 4.04653 12.5 3.56254 12.5H2.68207C1.23012 12.5 0.0543395 11.3187 0.0625427 9.86406C0.065277 9.37734 0.201996 8.9043 0.461761 8.49141L1.83715 6.29023Z" fill="#1F6B4A"/>
</g>
<defs>
<clipPath id="clip0_10_961">
<path d="M0.0625 0.25H14.0625V14.25H0.0625V0.25Z" fill="white"/>
</clipPath>
</defs>
</svg>
