<svg width="25" height="25" viewBox="0 0 25 25" fill="none" xmlns="http://www.w3.org/2000/svg">
<g clip-path="url(#clip0_10_923)">
<path d="M20.4844 10.25C20.4844 12.4016 19.7859 14.3891 18.6094 16.0016L24.5438 21.9406C25.1297 22.5266 25.1297 23.4781 24.5438 24.0641C23.9578 24.65 23.0062 24.65 22.4203 24.0641L16.4859 18.125C14.8734 19.3062 12.8859 20 10.7344 20C5.34844 20 0.984375 15.6359 0.984375 10.25C0.984375 4.86406 5.34844 0.5 10.7344 0.5C16.1203 0.5 20.4844 4.86406 20.4844 10.25ZM10.7344 17C11.6208 17 12.4985 16.8254 13.3175 16.4862C14.1364 16.147 14.8805 15.6498 15.5073 15.023C16.1341 14.3962 16.6313 13.6521 16.9706 12.8331C17.3098 12.0142 17.4844 11.1364 17.4844 10.25C17.4844 9.36358 17.3098 8.48583 16.9706 7.66689C16.6313 6.84794 16.1341 6.10382 15.5073 5.47703C14.8805 4.85023 14.1364 4.35303 13.3175 4.01381C12.4985 3.67459 11.6208 3.5 10.7344 3.5C9.84795 3.5 8.97021 3.67459 8.15126 4.01381C7.33231 4.35303 6.5882 4.85023 5.9614 5.47703C5.33461 6.10382 4.83741 6.84794 4.49819 7.66689C4.15897 8.48583 3.98437 9.36358 3.98437 10.25C3.98437 11.1364 4.15897 12.0142 4.49819 12.8331C4.83741 13.6521 5.33461 14.3962 5.9614 15.023C6.5882 15.6498 7.33231 16.147 8.15126 16.4862C8.97021 16.8254 9.84795 17 10.7344 17Z" fill="#1F6B4A"/>
</g>
<defs>
<clipPath id="clip0_10_923">
<path d="M0.984375 0.5H24.9844V24.5H0.984375V0.5Z" fill="white"/>
</clipPath>
</defs>
</svg>
