<svg width="25" height="25" viewBox="0 0 25 25" fill="none" xmlns="http://www.w3.org/2000/svg">
<g clip-path="url(#clip0_10_925)">
<path d="M2.55937 14.5813L11.0297 22.4891C11.3813 22.8172 11.8453 23 12.3281 23C12.8109 23 13.275 22.8172 13.6266 22.4891L22.0969 14.5813C23.5219 13.2547 24.3281 11.3938 24.3281 9.44844V9.17657C24.3281 5.90001 21.9609 3.10626 18.7313 2.56719C16.5938 2.21094 14.4187 2.90938 12.8906 4.43751L12.3281 5.00001L11.7656 4.43751C10.2375 2.90938 8.0625 2.21094 5.925 2.56719C2.69531 3.10626 0.328125 5.90001 0.328125 9.17657V9.44844C0.328125 11.3938 1.13437 13.2547 2.55937 14.5813Z" fill="#1F6B4A"/>
</g>
<defs>
<clipPath id="clip0_10_925">
<path d="M0.328125 0.5H24.3281V24.5H0.328125V0.5Z" fill="white"/>
</clipPath>
</defs>
</svg>
