<svg width="14" height="15" viewBox="0 0 14 15" fill="none" xmlns="http://www.w3.org/2000/svg">
<path d="M14 14.25H0V0.25H14V14.25Z" stroke="#E5E7EB"/>
<path d="M7.4375 2.87498C5.28828 2.87498 3.46992 4.28319 2.85195 6.22459C3.7707 5.75975 4.80703 5.49998 5.90625 5.49998H8.3125C8.55313 5.49998 8.75 5.69686 8.75 5.93748C8.75 6.17811 8.55313 6.37498 8.3125 6.37498H7.875H5.90625C5.45234 6.37498 5.01211 6.42694 4.58828 6.52264C3.88008 6.68397 3.22109 6.97108 2.63594 7.36209C1.04727 8.4203 0 10.2277 0 12.2812V12.7187C0 13.0824 0.292578 13.375 0.65625 13.375C1.01992 13.375 1.3125 13.0824 1.3125 12.7187V12.2812C1.3125 10.9496 1.87852 9.75194 2.78359 8.91248C3.325 10.9769 5.20352 12.5 7.4375 12.5H7.46484C11.077 12.4808 14 8.92069 14 4.53201C14 3.36717 13.7949 2.25975 13.423 1.2617C13.352 1.07303 13.0758 1.08123 12.9801 1.25897C12.466 2.22147 11.4488 2.87498 10.2812 2.87498H7.4375Z" fill="#1F6B4A"/>
</svg>
